<svg width="14" height="14" viewBox="0 0 14 14" fill="none" xmlns="http://www.w3.org/2000/svg">
<g clip-path="url(#clip0_1167_156)">
<path d="M3.71875 5.74219C3.04024 5.74219 2.48828 6.29415 2.48828 6.97266V10.3086C2.48828 10.9871 3.04024 11.5391 3.71875 11.5391C4.39726 11.5391 4.94922 10.9871 4.94922 10.3086V6.97266C4.94922 6.29415 4.39726 5.74219 3.71875 5.74219Z" fill="white"/>
<path d="M1.66797 6.97266C1.66797 6.85434 1.68358 6.74004 1.70291 6.6272C1.20859 6.78697 0.847656 7.24612 0.847656 7.79297V9.48828C0.847656 10.0351 1.20859 10.4943 1.70291 10.6541C1.68358 10.5412 1.66797 10.4269 1.66797 10.3086V6.97266Z" fill="white"/>
<path d="M10.2812 5.74219C9.60274 5.74219 9.05078 6.29415 9.05078 6.97266V10.3086C9.05078 10.9871 9.60274 11.5391 10.2812 11.5391C10.4046 11.5391 10.5214 11.5153 10.6338 11.4814C10.4811 11.9875 10.0162 12.3594 9.46094 12.3594H8.15492C7.98503 11.883 7.53402 11.5391 7 11.5391C6.32149 11.5391 5.76953 12.091 5.76953 12.7695C5.76953 13.448 6.32149 14 7 14C7.53402 14 7.98503 13.6561 8.15492 13.1797H9.46094C10.5917 13.1797 11.5117 12.2597 11.5117 11.1289V10.3086V6.97266C11.5117 6.29415 10.9598 5.74219 10.2812 5.74219Z" fill="white"/>
<path d="M12.2971 6.6272C12.3165 6.74004 12.3321 6.85434 12.3321 6.97266V10.3086C12.3321 10.4269 12.3165 10.5412 12.2971 10.6541C12.7914 10.4943 13.1524 10.0351 13.1524 9.48828V7.79297C13.1524 7.24612 12.7914 6.78697 12.2971 6.6272Z" fill="white"/>
<path d="M7 0C3.60741 0 0.847656 2.75975 0.847656 6.15234V6.16282C1.09203 5.97781 1.37476 5.84243 1.68675 5.78181C1.87846 3.01468 4.18507 0.820312 7 0.820312C9.81493 0.820312 12.1215 3.01468 12.3132 5.78178C12.6252 5.8424 12.9079 5.97781 13.1523 6.16279V6.15234C13.1523 2.75975 10.3926 0 7 0Z" fill="white"/>
</g>
<defs>
<clipPath id="clip0_1167_156">
<rect width="14" height="14" fill="white"/>
</clipPath>
</defs>
</svg>
