<svg width="21" height="21" viewBox="0 0 21 21" fill="none" xmlns="http://www.w3.org/2000/svg">
<path d="M20.6475 9.55956L17.4649 6.37691V2.70041C17.4649 2.03565 16.9262 1.49691 16.2604 1.49691C15.5962 1.49691 15.0575 2.03565 15.0575 2.70041V3.96961L12.6878 1.59979C11.5162 0.428806 9.4791 0.430883 8.31015 1.60191L0.352326 9.55956C-0.117442 10.0303 -0.117442 10.7919 0.352326 11.2619C0.822306 11.7324 1.58541 11.7324 2.05522 11.2619L10.0123 3.304C10.2715 3.04614 10.7284 3.04614 10.9862 3.30324L18.9447 11.2619C19.1806 11.4972 19.4883 11.6142 19.7959 11.6142C20.1041 11.6142 20.4123 11.497 20.6475 11.2619C21.1175 10.7919 21.1175 10.0303 20.6475 9.55956Z" fill="#F74843"/>
<path d="M10.9181 5.58852C10.6869 5.35745 10.3126 5.35745 10.0821 5.58852L3.08234 12.5862C2.97183 12.6966 2.90918 12.8475 2.90918 13.0049V18.1087C2.90918 19.3063 3.88025 20.2774 5.07786 20.2774H8.54343V14.9103H12.456V20.2774H15.9216C17.1192 20.2774 18.0902 19.3063 18.0902 18.1087V13.0049C18.0902 12.8475 18.0281 12.6966 17.9171 12.5862L10.9181 5.58852Z" fill="#F74843"/>
</svg>
