<svg
  xmlns="http://www.w3.org/2000/svg"
  width="17"
  height="16"
  viewBox="0 0 17 16"
  fill="none"
>
  <path
    d="M14.472 1.98085C12.8723 0.703407 10.7513 0 8.5 0C6.24867 0 4.12769 0.703407 2.52798 1.98085C0.897781 3.28227 0 5.02184 0 6.87892C0 8.62653 0.808418 10.2913 2.27636 11.5666C3.60228 12.7186 5.36282 13.4623 7.27447 13.6856V15.5101C7.27447 15.7807 7.49742 16 7.77251 16C8.63398 16 10.966 14.96 12.9348 13.4677C14.1109 12.5762 15.0535 11.6189 15.7361 10.6221C16.5747 9.39756 17 8.13812 17 6.87892C17 5.02184 16.1022 3.28227 14.472 1.98085ZM5.46373 8.94411H3.77258C3.5098 8.94411 3.31902 8.79189 3.31902 8.582V5.17074C3.31902 4.95715 3.51849 4.81374 3.81525 4.81374C4.112 4.81374 4.31135 4.95715 4.31135 5.17074V8.05199H5.46373C5.6741 8.05199 5.82118 8.23534 5.82118 8.49805C5.82118 8.75655 5.67086 8.94411 5.46373 8.94411ZM7.0593 8.582C7.0593 8.79189 6.85061 8.94411 6.56319 8.94411C6.27098 8.94411 6.06709 8.79521 6.06709 8.582V5.17074C6.06709 4.95715 6.26644 4.81374 6.56319 4.81374C6.85995 4.81374 7.0593 4.95715 7.0593 5.17074V8.582ZM10.4529 8.582C10.4529 8.79189 10.2442 8.94411 9.95666 8.94411C9.71217 8.94411 9.53345 8.84612 9.42567 8.65269L8.55901 7.0587V8.582C8.55901 8.79189 8.35033 8.94411 8.06291 8.94411C7.7707 8.94411 7.56668 8.79521 7.56668 8.582V5.17597C7.56668 4.95932 7.76616 4.81374 8.06291 4.81374C8.38431 4.81374 8.52996 4.9125 8.71258 5.25444L9.46056 6.67644V5.17074C9.46056 4.95715 9.6599 4.81374 9.95666 4.81374C10.2534 4.81374 10.4529 4.95715 10.4529 5.17074V8.582ZM12.6139 6.4617C12.8238 6.4617 12.982 6.64224 12.982 6.8816C12.982 7.08001 12.8531 7.29091 12.6139 7.29091H11.9525V8.05187H13.3128C13.5263 8.05187 13.681 8.24172 13.681 8.50315C13.681 8.75872 13.5263 8.94411 13.3128 8.94411H11.4136C11.1508 8.94411 10.9601 8.79176 10.9601 8.582V5.17597C10.9601 4.96608 11.1508 4.81374 11.4136 4.81374H13.3128C13.5263 4.81374 13.681 4.99913 13.681 5.25469C13.681 5.51626 13.5263 5.70598 13.3128 5.70598H11.9525V6.4617H12.6139Z"
    fill="white"
  />
</svg>