<svg width="120" height="120" viewBox="0 0 120 120" fill="none" xmlns="http://www.w3.org/2000/svg">
<g clip-path="url(#clip0_431_398)">
<rect width="120" height="120" fill="none"/>
<mask id="mask0_431_398" style="mask-type:luminance" maskUnits="userSpaceOnUse" x="0" y="0" width="120" height="120">
<rect width="120" height="120" fill="none"/>
</mask>
<g mask="url(#mask0_431_398)">
</g>
<g clip-path="url(#clip1_431_398)">
<path d="M30.8494 97.5379L22.4353 89.1238L35.5936 75.9663L44.0069 84.3796L30.8494 97.5379Z" fill="#F5EBEB"/>
<path d="M38.6518 88.209L31.7642 81.3215C30.1395 79.6959 30.1395 77.0615 31.7642 75.4368L37.6246 69.5764L50.3968 82.3487L44.5365 88.209C42.9117 89.8338 40.2774 89.8338 38.6518 88.209Z" fill="#C3A2A2"/>
<path d="M7.26781 113.506L6.46719 112.705C4.51094 110.749 4.51094 107.578 6.46719 105.623L8.35882 103.731L16.2417 111.614L14.3501 113.506C12.3938 115.461 9.22322 115.461 7.26781 113.506Z" fill="#8C6D6D"/>
<path d="M10.6533 112.04L7.93337 109.32C5.70353 107.09 5.70353 103.475 7.93337 101.246L18.6067 90.5714C20.8366 88.3416 24.4511 88.3416 26.681 90.5714L29.4009 93.2914C31.6308 95.5212 31.6308 99.1366 29.4009 101.366L18.7276 112.04C16.4977 114.27 12.8832 114.27 10.6533 112.04Z" fill="#C3A2A2"/>
<path d="M115 49.2527C115 73.692 95.1874 93.5045 70.7482 93.5045C46.3081 93.5045 26.4955 73.692 26.4955 49.2527C26.4955 24.8126 46.3081 5 70.7482 5C95.1874 5 115 24.8126 115 49.2527Z" fill="#DCC6C6"/>
<path d="M108.373 49.2527C108.373 70.0321 91.5276 86.8772 70.7482 86.8772C49.968 86.8772 33.1229 70.0321 33.1229 49.2527C33.1229 28.4725 49.968 11.6274 70.7482 11.6274C91.5276 11.6274 108.373 28.4725 108.373 49.2527Z" fill="#E8DADA"/>
<path d="M104.863 49.652C104.863 68.4794 89.5996 83.7433 70.7714 83.7433C51.9433 83.7433 36.6802 68.4794 36.6802 49.652C36.6802 30.8239 51.9433 15.5599 70.7714 15.5599C89.5996 15.5599 104.863 30.8239 104.863 49.652Z" fill="white"/>
<path d="M52.5201 37.1599C52.5201 34.9508 54.311 33.1599 56.5201 33.1599H87.2401C89.4492 33.1599 91.2401 34.9508 91.2401 37.1599V42.3599C91.2401 44.569 89.4492 46.3599 87.2401 46.3599H56.5201C54.311 46.3599 52.5201 44.569 52.5201 42.3599V37.1599Z" fill="#DCC6C6"/>
<path d="M52.5201 54.7199C52.5201 53.9909 53.1111 53.3999 53.8401 53.3999H89.9201C90.6491 53.3999 91.2401 53.9909 91.2401 54.7199C91.2401 55.4489 90.6491 56.0399 89.9201 56.0399H53.8401C53.1111 56.0399 52.5201 55.4489 52.5201 54.7199Z" fill="#F5EBEB"/>
<path d="M52.5201 61.7599C52.5201 61.0309 53.1111 60.4399 53.8401 60.4399H79.3601C80.0891 60.4399 80.6801 61.0309 80.6801 61.7599C80.6801 62.489 80.0891 63.0799 79.3601 63.0799H53.8401C53.1111 63.0799 52.5201 62.489 52.5201 61.7599Z" fill="#F5EBEB"/>
</g>
</g>
<defs>
<clipPath id="clip0_431_398">
<rect width="120" height="120" fill="none"/>
</clipPath>
<clipPath id="clip1_431_398">
<rect width="110" height="109.973" fill="none" transform="translate(5.00024 5)"/>
</clipPath>
</defs>
</svg>
