<svg width="28" height="26" viewBox="0 0 28 26" fill="none" xmlns="http://www.w3.org/2000/svg">
<path d="M8.09395 19.7439C6.87065 19.6815 6.89369 17.9608 8.09389 17.9011C11.4937 17.9129 20.461 17.9043 23.9689 17.9067C24.9284 17.9067 25.7492 17.2538 25.965 16.319L27.9569 7.69343C28.071 7.19956 27.9559 6.6884 27.6412 6.2911C27.3264 5.89381 26.8553 5.66274 26.3484 5.66274C24.9372 5.66274 12.9584 5.60851 6.82288 5.58406L5.8503 1.97533C5.61682 1.11295 4.82983 0.510681 3.93642 0.510681H0.820749C0.367476 0.510681 0 0.878158 0 1.33143C0 1.7847 0.367476 2.15218 0.820749 2.15218H3.93642C4.09023 2.15218 4.22565 2.25587 4.26565 2.40344L8.00088 16.2618C7.34411 16.2857 6.73238 16.5528 6.26849 17.0235C5.78108 17.5181 5.51932 18.1729 5.53141 18.8672C5.55559 20.2557 6.70513 21.3854 8.09395 21.3854H9.29071C9.11283 21.7588 9.01297 22.1762 9.01297 22.6166C9.01297 24.2006 10.3017 25.4893 11.8857 25.4893C13.4697 25.4893 14.7584 24.2006 14.7584 22.6166C14.7584 22.1761 14.6585 21.7588 14.4806 21.3854H19.6632C19.4854 21.7587 19.3856 22.1759 19.3856 22.6161C19.3856 24.2002 20.6743 25.4888 22.2583 25.4888C23.8424 25.4888 25.1311 24.2001 25.1311 22.6161C25.1311 22.1587 25.0231 21.7263 24.8321 21.342C25.1569 21.2327 25.3911 20.9263 25.3911 20.5647C25.3911 20.1114 25.0236 19.7439 24.5704 19.7439H8.09395ZM13.1169 22.6166C13.1169 23.2955 12.5646 23.8478 11.8856 23.8478C11.2067 23.8478 10.6544 23.2955 10.6544 22.6166C10.6544 21.9381 11.2062 21.386 11.8846 21.3854H11.8867C12.5651 21.386 13.1169 21.9381 13.1169 22.6166ZM22.2584 23.8474C21.5795 23.8474 21.0271 23.295 21.0271 22.6162C21.0271 21.944 21.5687 21.3962 22.2384 21.3854H22.2784C22.9481 21.3962 23.4897 21.944 23.4897 22.6162C23.4897 23.295 22.9373 23.8474 22.2584 23.8474ZM26.3545 7.31025C26.3593 7.31638 26.3586 7.31928 26.3576 7.32399L25.5183 10.9585H22.6762L23.1602 7.29127L26.3419 7.30407C26.3467 7.30418 26.3496 7.30418 26.3545 7.31025ZM17.8928 16.2652V12.6H20.8038L20.3201 16.2652H17.8928ZM13.8229 16.2652L13.3352 12.6H16.2513V16.2652H13.8229ZM10.0445 16.2652H10.042C9.84192 16.2651 9.66568 16.1302 9.61365 15.938L8.714 12.6H11.6793L12.1669 16.2652H10.0445ZM13.1168 10.9586L12.6232 7.24886L16.2513 7.26347V10.9586H13.1168ZM17.8928 10.9586V7.27009L21.5053 7.28465L21.0205 10.9586H17.8928ZM10.9663 7.24213L11.4608 10.9585H8.27156L7.26587 7.22719L10.9663 7.24213ZM23.9689 16.2652H21.9758L22.4595 12.6H25.1391L24.3656 15.9496C24.3227 16.1354 24.1596 16.2652 23.9689 16.2652Z" fill="#F74843"/>
</svg>
