<svg width="23" height="21" viewBox="0 0 23 21" fill="none" xmlns="http://www.w3.org/2000/svg">
<path d="M11.5 11.9915H0.673828C0.301695 11.9915 0 12.2932 0 12.6653C0 13.0374 0.301695 13.3391 0.673828 13.3391H11.5C11.8721 13.3391 12.1738 13.0374 12.1738 12.6653C12.1738 12.2932 11.8721 11.9915 11.5 11.9915Z" fill="#F74843"/>
<path d="M11.5 16.3219H0.673828C0.301695 16.3219 0 16.6236 0 16.9957C0 17.3679 0.301695 17.6696 0.673828 17.6696H11.5C11.8721 17.6696 12.1738 17.3679 12.1738 16.9957C12.1738 16.6236 11.8721 16.3219 11.5 16.3219Z" fill="#F74843"/>
<path d="M11.5 3.33051H0.673828C0.301695 3.33051 0 3.6322 0 4.00433C0 4.37647 0.301695 4.67816 0.673828 4.67816H11.5C11.8721 4.67816 12.1738 4.37647 12.1738 4.00433C12.1738 3.6322 11.8721 3.33051 11.5 3.33051Z" fill="#F74843"/>
<path d="M11.5 7.66095H0.673828C0.301695 7.66095 0 7.96264 0 8.33478C0 8.70691 0.301695 9.00861 0.673828 9.00861H11.5C11.8721 9.00861 12.1738 8.70691 12.1738 8.33478C12.1738 7.96264 11.8721 7.66095 11.5 7.66095Z" fill="#F74843"/>
<path d="M21.8496 15.7975L19.3912 18.256V2.74413L21.8496 5.20257C22.1127 5.46572 22.5394 5.46572 22.8025 5.20257C23.0657 4.93946 23.0657 4.51279 22.8025 4.24964L19.1938 0.640929C19.0675 0.514564 18.8961 0.443542 18.7174 0.443542C18.5387 0.443542 18.3673 0.514564 18.2409 0.640929L14.6322 4.24964C14.369 4.51279 14.369 4.93941 14.6322 5.20257C14.8953 5.46572 15.322 5.46572 15.5851 5.20257L18.0436 2.74413V18.256L15.5851 15.7975C15.322 15.5344 14.8953 15.5344 14.6322 15.7975C14.369 16.0607 14.369 16.4873 14.6322 16.7505L18.2409 20.3592C18.3673 20.4855 18.5387 20.5565 18.7174 20.5565C18.8961 20.5565 19.0675 20.4855 19.1938 20.3592L22.8025 16.7505C23.0657 16.4873 23.0657 16.0607 22.8025 15.7975C22.5394 15.5343 22.1127 15.5343 21.8496 15.7975Z" fill="#F74843"/>
</svg>
