<svg width="22" height="22" viewBox="0 0 22 22" fill="none" xmlns="http://www.w3.org/2000/svg">
<path d="M11 0C7.80145 0 5.19922 2.60223 5.19922 5.80078C5.19922 8.99933 7.80145 11.6016 11 11.6016C14.1986 11.6016 16.8008 8.99933 16.8008 5.80078C16.8008 2.60223 14.1986 0 11 0Z" fill="#F74843"/>
<path d="M18.2173 15.3912C16.6292 13.7787 14.5238 12.8906 12.2891 12.8906H9.71094C7.47622 12.8906 5.37084 13.7787 3.78271 15.3912C2.20236 16.9958 1.33203 19.1139 1.33203 21.3555C1.33203 21.7114 1.62061 22 1.97656 22H20.0234C20.3794 22 20.668 21.7114 20.668 21.3555C20.668 19.1139 19.7976 16.9958 18.2173 15.3912Z" fill="#F74843"/>
</svg>
